Patient4_TMGait_0pt7_01_right_32_EMG.mot
version=1
nRows=40
nColumns=33
inDegrees=no
endheader
time	1LAddLong	2LGlutMax	3LGlutMed	4LIliopsoas	5LSemiMemb	6LBicFemLong	7LRecFem	8LVastMed	9LVastLat	10LGasMed	11LTibAnt	12lTibPost	13LPeroneusLong	14LSol	15LExtDigLong	16LFlexDigLong	17RAddLong	18RGlutMax	19RGlutMed	20RIliopsoas	21RSemiMemb	22RBicFemLong	23RRecFem	24RVastMed	25RVastLat	26RGasMed	27RTibAnt	28RTibPost	29RPeroneusLong	30RSol	31RExtDigLong	32RFlexDigLong
36.782	0.003204	-0.97656	0.30975	0.032349	-0.006104	0.07019	-0.30716	0.010223	-0.051727	0.032043	0.045166	-0.001678	-0.10895	-0.11154	-0.059509	0.010529	-0.042572	0.44327	-0.061646	-0.078735	-0.11581	-0.2948	0.51559	0.18051	0.031586	0.08194	0.16296	0.39322	2.0731	-0.31052	-0.004578	-0.014343
36.783	0.004578	-1.0086	0.31342	0.022125	0.001831	0.06897	-0.22995	-0.006866	-0.032349	0.027466	-0.001068	0.004578	-0.083008	-0.10635	-0.053101	-0.002594	-0.061493	0.45258	-0.26077	-0.005188	-0.057831	0.43823	0.56274	0.19989	-0.15152	0.055237	0.034943	0.15915	2.0557	-0.5661	-0.005035	-0.021667
36.784	0.006256	-0.97931	0.34866	0.019531	0.030518	0.0354	-0.07782	-0.000763	-0.038452	0.029907	-0.041046	-0.000916	-0.086975	-0.016174	0.039215	-0.040131	-0.12604	0.45944	0.073242	0.068817	-0.12146	0.46234	0.61264	0.32333	-0.4538	0.014801	0.11978	0.007782	0.15335	-0.3122	-0.003052	-0.007172
36.785	0.000763	-0.90485	0.3624	0.012054	0.024719	0.014343	0.23148	0.002747	-0.044861	0.039368	-0.034943	0.010376	-0.059204	-0.024261	0.11169	-0.012054	-0.12878	0.48935	0.28793	0.073547	-0.12436	-0.33875	0.63568	0.35919	-0.54733	-0.022278	0.39993	-0.010223	-2.9736	-0.21362	-0.004883	-0.019226
36.786	-0.003052	-0.78278	0.3389	0.00824	0.00824	0.019226	0.55389	-0.00061	-0.06012	0.037994	-0.016785	0.007324	-0.063934	-0.094757	0.10025	-0.054474	-0.090637	0.45364	-0.019531	0.075378	0.071411	-0.46234	0.71594	0.1648	-0.15442	-0.050507	0.34943	-0.02533	-3.4346	-0.043182	-0.007629	-0.020142
36.787	-0.012207	-0.61829	0.31265	-0.002289	0.005035	0.005035	0.5954	-0.000763	-0.087891	0.055237	0.020142	0.000916	-0.084991	-0.13641	0.10712	-0.048981	-0.06485	0.43793	-0.27039	0.12726	0.17853	-0.3125	0.6897	-0.062561	0.20996	-0.032654	-0.3624	-0.024414	2.7258	0.041504	-0.005341	0
36.788	-0.007935	-0.47257	0.3154	0.006561	0.007019	-0.009766	0.51956	0.004425	-0.094757	0.042114	0.025482	-0.00412	-0.081787	-0.13107	0.071411	-0.057831	-0.043793	0.39978	0.044861	0.10605	0.14313	-0.11749	0.59036	-0.11017	0.24262	-0.046997	-0.48019	-0.000763	1.7366	-0.000916	-0.002136	0.005188
36.789	-0.002289	-0.34027	0.28625	0.004425	0.006714	-0.017242	0.41657	0.010529	-0.10284	0.056305	0.002289	-0.00351	-0.086365	-0.084229	0.062561	-0.064087	-0.057983	0.39856	0.36987	0.026245	0.059814	0.48996	0.45593	-0.099792	0.16449	-0.041656	-0.5304	0.013428	1.223	0.000763	-0.001831	0.001373
36.79	-0.006561	-0.19241	0.29022	0.003357	0.005798	-0.016632	0.38284	0.001678	-0.099182	0.055542	0.046692	-0.005798	-0.1001	-0.007019	0.035553	-0.084381	-0.053558	0.28748	0.36118	-0.090332	0.14175	0.94696	0.28778	-0.068817	0.053101	0.006409	-0.27496	0.002899	0.25146	-0.18753	0.000305	0.001221
36.791	-0.001831	-0.031433	0.271	0.031281	0.004883	-0.0354	0.36377	-0.00946	-0.085449	0.043945	0.2005	0.001526	-0.077362	0.037994	0.014343	-0.083008	-0.063019	0.25391	0.5481	-0.17136	0.043945	0.77805	0.14358	-0.002899	-0.093994	0.063934	-0.15259	-0.057831	0.41245	-0.16754	-0.003967	0.003052
36.792	-0.000916	0.056763	0.29388	0.039215	0.000153	-0.026093	0.24719	0.001526	-0.066528	0.070801	0.16342	-0.000305	-0.08667	0.011597	-0.046539	-0.094147	-0.030823	0.24246	0.34439	-0.22278	0.2945	0.36987	-0.022888	0.13336	-0.40832	0.06134	0.00412	-0.049286	0.10086	0.022888	-0.001373	-0.007477
36.793	-0.003662	0.15015	0.30136	0.032043	0.018005	-0.029449	0.048828	0.009003	-0.050659	0.059509	-0.24551	-0.001068	-0.081177	-0.016479	0.45883	-0.10178	-0.007172	0.049133	-0.67825	-0.059967	0.41809	0.27893	0.097961	0.32532	-0.66025	0.11917	0.46661	-0.037231	-0.61645	0.020447	-0.001373	-0.022278
36.794	0.00473	0.27542	0.23239	-0.022125	0.00473	-0.024261	-0.040741	0.013275	-0.043182	0.013733	-0.080872	-0.000763	-0.015411	0.034637	1.1168	-0.086517	-0.004578	-0.079956	-1.2546	0.36606	0.019836	0.000916	0.19348	0.38208	-0.53345	0.072632	0.53726	-0.020905	0.03067	0.077515	-0.004272	-0.023499
36.795	0.004578	0.43213	0.26108	-0.016479	-0.003357	-0.037384	-0.11475	0.023041	-0.035095	-0.046234	0.028992	-0.001678	0.11887	0.12573	0.57236	-0.10132	-0.027313	-0.1413	-1.1444	0.36911	-0.10895	-0.45013	0.26077	0.41992	-0.35446	-0.002441	0.25116	-0.001068	0.054016	0.001984	-0.003967	-0.015259
36.796	0.004578	0.62515	0.25299	-0.00824	0.013428	-0.041504	-0.00824	0.010986	-0.02121	0.029755	0.048828	-0.003204	-0.002136	0.17456	-0.28625	-0.11749	0.026245	-0.1767	-0.86395	0.24902	0.067444	-0.47867	0.23056	0.24094	-0.15991	-0.16632	0.053101	0.024719	-0.22247	0.20615	-0.005493	0.000763
36.797	0.00824	0.78598	0.2356	-0.016327	0.010071	-0.054932	0.1857	0.005341	-0.008392	0.065155	0.15961	-0.009308	-0.16251	0.1532	-0.0914	-0.11765	0.039368	-0.16693	-0.79804	0.14435	0.16785	-0.31174	-0.1413	0.076141	0.002594	-0.2269	0.091095	-0.005188	-1.9052	0.30258	-0.001984	0.000916
36.798	0.006561	0.88913	0.22171	-0.016327	0.014648	-0.07843	0.1088	0.002289	0.007477	0.041962	0.1445	-0.001221	-0.022583	0.1059	-0.1712	-0.11795	0.052795	-0.22217	-0.80978	0.087128	0.061951	-0.4277	-0.28763	-0.055695	0.066223	-0.19684	0.043945	-0.087585	-0.50308	0.29297	-0.003967	0.003967
36.799	0.00061	0.98389	0.19592	-0.020752	0.003967	-0.066071	-0.000458	0.010681	0.006714	0.024414	0.069885	-0.003967	0.010071	0.056152	-0.37079	-0.10651	0.080566	-0.28961	-0.84305	0.059509	-0.026245	-0.46158	-0.45898	-0.18951	0.093689	-0.065918	0.043488	-0.067291	-0.6366	0.011902	-0.004272	0.010223
36.8	-0.009766	1.1296	0.17624	-0.018005	0.009613	-0.084076	-0.029907	0.013733	0.018616	0.040894	-0.29739	0.006866	-0.088501	-0.010681	-0.40985	-0.1149	0.063477	-0.35629	-0.51224	0.003204	-0.083313	-0.53482	-0.39734	-0.19974	0.031586	0.052185	0.090942	0.032043	-0.19241	-0.12039	-0.005341	0.002441
36.801	-0.000305	1.2259	0.1857	0.005798	0.023193	-0.10178	-0.008087	0.014801	0.020447	0.038605	-0.12863	0.002136	-0.092468	-0.012054	-0.16098	-0.10208	0.065613	-0.32684	-0.50705	-0.054474	-0.30441	-0.48096	-0.45044	-0.082855	0.039368	-0.023651	0.18173	0.004883	-0.91126	-0.13489	-0.004883	-0.004272
36.802	-0.001831	1.2523	0.16708	0.000916	0.0177	-0.10742	0.10696	0.01297	0.020142	0.019073	0.054779	-0.009613	-0.080719	0.10376	-0.34439	-0.092468	-0.00351	-0.34958	-0.20706	-0.067596	-0.14053	-0.33234	-0.48843	-0.012207	0.057983	0.038147	-0.015564	-0.020294	-0.55405	0.027313	-0.001831	-0.007477
36.803	0.003052	1.256	0.16754	-0.019073	0.013428	-0.086517	0.088654	0.018311	0.00412	0.020905	0.060425	-0.006104	-0.019684	0.11475	-0.55054	-0.082703	-0.023956	-0.42709	-0.82047	0.008698	-0.29465	-0.47791	-0.38177	0.041504	0.025635	0.095978	-0.13275	-0.000916	-0.02182	0.15945	-0.002899	0.006409
36.804	0.009308	1.2556	0.14267	-0.020599	0.030365	-0.083466	-0.027924	0.023499	-0.013885	0.011444	-0.23972	-0.006866	0.043488	0.016022	-0.045319	-0.081024	-0.0177	-0.54291	-0.54169	0.00473	-0.31433	-0.59937	-0.35339	0.036774	-0.017242	0.066376	-0.094604	0.000153	1.6673	0.20401	-0.003662	0.003815
36.805	0.010681	1.3736	0.12283	-0.027313	0.020142	-0.066071	-0.22903	0.018921	-0.024719	0.040741	-0.3595	-0.010834	0.070038	0.036163	-0.19318	-0.075531	-0.049133	-0.4863	-0.32028	0.010071	0.10315	-0.46356	-0.34241	0.085297	0.00061	0.042572	0.026245	-0.000458	1.2865	0.32669	-0.003662	0.006714
36.806	0.011902	1.3332	0.051575	-0.031738	0.018463	-0.057678	-0.34241	0.014801	-0.032959	0.070801	-0.16098	-0.003204	-0.00061	0.093994	0.079041	-0.082703	-0.061493	-0.64026	-0.75516	0.030212	0.14755	-0.23895	-0.32303	0.09552	0.010223	0.019226	0.029755	-0.011749	-0.16617	0.47775	-0.003052	0.003052
36.807	0.010071	1.2541	0.05661	-0.032196	0.029755	-0.027924	-0.40359	0.014343	-0.03418	0.036163	0.19073	-0.00351	0.002289	0.076294	0.024261	-0.063782	-0.039215	-0.77011	-0.85663	0.031738	0.25513	-0.25513	-0.24612	0.086212	0.025482	0.02121	0.083771	-0.017395	-0.59738	0.66589	-0.004883	0.000153
36.808	0.014648	1.2582	0.076447	-0.001221	0.022278	-0.012665	-0.48645	0.015259	-0.030212	-0.016937	0.13641	0.002441	0.052338	-0.062714	0.33936	-0.063629	-0.021667	-0.8464	-0.80353	0.04776	0.39871	-0.30792	-0.18829	0.098419	0.017242	0.075531	0.19302	-0.013733	-0.022278	0.4837	-0.002747	-0.002289
36.809	0.011139	1.2466	0.10757	0.061798	0.028839	0.001984	-0.47699	0.010986	-0.007629	0.020447	-0.097961	-0.002441	-0.009003	-0.058441	0.41733	-0.059357	-0.005188	-0.88104	-1.0161	0.066833	0.3862	-0.14664	-0.051422	0.078125	-0.036316	0.068512	0.1326	-0.000153	0.25238	0.16769	-0.006714	0.005035
36.81	0.006104	1.2216	0.10788	0.077057	0.018616	-0.007477	-0.36377	0.006714	0.01236	0.071716	-0.099182	-0.003815	-0.10956	-0.052185	0.54489	-0.067902	0.031281	-0.78674	-0.98694	0.047913	0.32638	-0.19379	-0.02121	0.029602	-0.04776	-0.019836	-0.094452	-0.018158	0.17014	-0.16434	-0.00412	-0.005188
36.811	0.003967	1.147	0.08194	0.045166	0.036926	-0.001068	-0.18829	0.00412	0.025635	0.082092	0.045929	0.003052	-0.06546	-0.10819	-0.64362	-0.080261	0.034027	-0.63309	-0.87692	0.014954	0.24384	-0.43427	0.005646	-0.027008	-0.076141	-0.097351	-0.070038	0.010834	-0.51559	-0.36911	-0.007935	-0.009003
36.812	0.001373	1.0551	0.00885	0.000916	0.020752	0.000153	-0.13245	-0.001984	0.044098	0.028381	0.016022	-0.005188	-0.014496	-0.048523	-0.50812	-0.076752	0.027618	-0.58258	-0.48843	0.043793	-0.010376	-0.31693	-0.019836	-0.057678	-0.10529	-0.12024	-0.096283	0.024261	-0.18249	-0.51498	-0.004883	-0.010834
36.813	-0.006256	1.0262	-0.013275	0.00946	0.021362	-0.009308	-0.029907	-0.000153	0.031586	0.000916	0.070801	-0.005951	0.064545	0.007629	-0.57297	-0.066528	0.06012	-0.33661	0.040741	-0.039063	-0.29236	-0.11688	-0.060883	-0.045624	-0.103	-0.10056	-0.039978	-0.041351	-0.056305	-0.45303	-0.003357	-0.00885
36.814	-0.001068	0.98236	-0.033112	-0.001068	0.038147	0.01358	0.057526	-0.000916	0.007019	0.049286	0.040588	0.019073	-0.001068	-0.092163	-0.4567	-0.066223	0.063629	-0.2858	0.063782	-0.086517	-0.27985	0.07843	-0.08728	-0.11749	-0.10483	0.041199	0.26443	-0.053864	-0.034637	-0.21347	-0.002136	-0.005341
36.815	0.001831	0.89996	-0.1355	-0.013885	0.021057	0.016174	0.15213	-0.001373	-0.006409	0.08255	-0.007629	0.001526	-0.066681	-0.24872	-0.17548	-0.06134	0.045776	-0.439	0.19806	-0.16739	-0.28458	0.23743	-0.023956	-0.046387	-0.048676	0.052032	0.019531	0.033417	-0.06897	-0.13718	-0.000916	-0.003052
36.816	-0.001984	0.79025	-0.10101	-0.010681	0.034485	0.007172	0.1384	-0.005341	-0.024719	0.095978	0.025635	0.003967	-0.10223	-0.15366	0.12711	-0.059204	-0.054169	-0.34851	0.19486	-0.15427	-0.25925	0.32135	0.062256	0.063019	0.15945	0.030365	-0.52689	0.033875	-0.033722	-0.001678	-0.003815	-0.005188
36.817	0.009003	0.75211	-0.032196	0.001373	0.019226	-0.00824	0.17136	-0.002136	-0.029755	0.064545	-0.027008	0.004425	0.004272	0.001831	0.26596	-0.051422	-0.071869	-0.18417	0.20111	-0.063629	0.42313	0.38498	0.085907	0.075226	0.18356	0.073547	-0.40497	0.053711	0.32547	-0.10086	-0.00412	-0.011902
36.818	0.006561	0.59937	-0.035858	-0.00351	0.022278	-0.01297	0.21652	-0.008087	-0.029907	0.032196	0.002289	0.001373	-0.000458	0.050964	0.28702	-0.034027	-0.05661	-0.36148	-0.14755	0.000305	0.34073	0.88013	0.081482	0.11505	0.11734	0.09552	0.1741	0.018921	0.57861	-0.2034	-0.002441	-0.013275
36.819	0.009766	0.50415	0.019379	-0.007172	0.033417	-0.040588	0.19653	-0.010376	-0.044861	0.05249	0.048523	0.007629	-0.049896	0.039063	0.2565	-0.027771	-0.041351	-0.49911	-0.20599	0.12161	0.11231	1.1076	0.049591	0.23178	0.11795	0.052643	0.42328	0.020905	0.11795	-0.058899	-0.004578	-0.015106
36.82	0.001678	0.37247	-0.029144	-0.012054	0.024719	-0.015717	0.21301	0.004272	-0.069885	0.045624	0.060577	0.00946	-0.12772	0.071259	0.26032	-0.028687	-0.026855	-0.59174	-0.16556	0.14786	0.032654	0.73593	0.11383	0.22659	0.09964	-0.061493	0.12497	-0.030365	0.044708	0.22766	-0.005035	-0.010376
36.821	-0.018768	0.29617	-0.10696	-0.003052	0.025177	-0.038147	0.20157	0.004272	-0.1001	0.059509	0.057068	-0.000153	-0.2095	0.002747	0.20554	-0.014801	-0.025177	-0.71121	-0.57068	0.032959	0.050964	0.7457	0.18799	0.18601	0.069733	-0.11475	0.089111	-0.036316	-0.014496	0.23499	-0.002136	-0.015564
